<svg width="543" height="121" viewBox="0 0 543 121" fill="none" xmlns="http://www.w3.org/2000/svg"><path d="M28.415 69.605c-.24.48-.72.839-1.08 1.078-1.558.959-3.716.48-4.675-1.078L4.796 40.613H0l25.537 40.493 25.538-40.493h-4.916L28.415 69.605zM116.537 80.387h4.796l17.744-28.872c.959-1.558 2.997-2.037 4.676-1.078.479.24.839.718 1.079 1.078l17.744 28.992h4.916l-25.418-40.493-25.537 40.373zM61.626 80.387h4.316V40.613h-4.316v39.774zM122.052 40.613h-44.84v3.474h14.627a5.626 5.626 0 015.635 5.63v30.67h4.316v-30.67a5.627 5.627 0 015.635-5.63h14.627v-3.474zM213.172 76.913h-29.374a3.35 3.35 0 01-3.358-3.355V40.613h-4.436v39.774h37.168v-3.474zM383.301 80.507h4.796l17.744-28.992c.959-1.558 2.998-2.037 4.676-1.078.48.24.839.718 1.079 1.078l17.625 28.992h4.915l-25.417-40.493-25.418 40.493zM290.503 50.317c0-4.553 5.395-6.949 16.066-6.949 8.393 0 14.507.72 18.464 2.396l.12-3.354c-4.317-1.677-10.551-2.516-18.464-2.516-13.548 0-20.382 3.474-20.382 10.662 0 17.012 37.167 5.392 37.167 19.169 0 5.39-5.755 8.026-17.145 8.026-7.193.12-14.267-.838-21.101-2.875l-.12 3.594c6.954 2.037 14.028 2.995 21.341 2.756 14.028 0 21.101-3.954 21.101-11.74 0-17.851-37.047-6.71-37.047-19.17zM366.876 40.613h-25.778v39.774h4.317V63.855h21.461c8.512 0 14.267-4.313 14.267-11.621 0-7.308-5.755-11.621-14.267-11.621zm-.72 19.647H350.93a5.626 5.626 0 01-5.635-5.63V44.207h20.861c6.834 0 10.311 2.636 10.311 8.027 0 5.39-3.956 8.026-10.311 8.026zM484.132 52.593c0-7.907-6.234-11.98-14.747-11.98h-25.657v39.774h4.316V64.573h20.142l11.63 15.814h4.915l-11.869-16.293c6.714-1.078 11.27-4.672 11.27-11.5zM447.924 61.1V49.718a5.627 5.627 0 015.635-5.63h15.107c7.313 0 10.91 2.874 10.91 8.505 0 5.63-3.597 8.506-10.91 8.506h-20.742zM521.539 56.067l20.862-15.454h-5.875l-32.372 23.72v-23.72h-4.316v39.774h4.316V69.006l10.071-7.308c2.278-1.677 5.635-1.318 7.554.839l15.946 17.97h5.395l-21.581-24.44z" fill="#fff"/><path d="M269.042 43.967l40.764-42.53L308.487 0l-42.682 40.733c-9.352 8.506-23.739 8.506-33.091 0L214.49 24.32l-1.438 1.437 16.425 18.21c8.513 9.345 8.513 23.721 0 33.066l-40.764 42.649 1.319 1.318 42.682-40.733c9.352-8.506 23.739-8.506 33.091 0l18.224 16.413 1.439-1.437-16.426-18.21c-8.392-9.345-8.392-23.601 0-33.066z" fill="#fff"/></svg>