<svg width="199" height="48" viewBox="0 0 199 48" fill="none" xmlns="http://www.w3.org/2000/svg"><path d="M9.341 32.185L0 16.1h1.78l6.507 11.498c.11.196.265.358.45.47a1.16 1.16 0 001.209.001c.184-.113.34-.275.45-.47l6.493-11.5h1.806L9.341 32.186zm42.699-16.37L42.693 31.9h1.757l6.507-11.498c.111-.196.266-.358.451-.47a1.167 1.167 0 011.211 0c.186.112.34.274.452.47l6.48 11.498h1.806L52.04 15.815zM24.161 31.9h-1.56V16.1h1.569l-.009 15.8zm13.129 0h-1.57V19.722c0-.591-.216-1.158-.603-1.577a1.985 1.985 0 00-1.457-.652h-5.373v-1.388h16.437v1.388H39.35a1.99 1.99 0 00-1.457.652 2.325 2.325 0 00-.604 1.577V31.9zm40.8 0H64.468V16.1h1.63v13.048c0 .354.13.694.362.944.231.25.545.392.873.392H78.11l-.02 1.416zm71.7-16.057l-9.341 16.086h1.758l6.507-11.499c.11-.195.265-.357.45-.47a1.16 1.16 0 011.209 0c.185.113.34.274.45.47l6.485 11.499h1.806l-9.324-16.086zm-30.672 2.267c-1.441-.65-3.691-.95-6.78-.95-3.928 0-5.892.95-5.892 2.776 0 4.953 13.586.537 13.586 7.605 0 3.085-2.592 4.644-7.746 4.644a24.087 24.087 0 01-7.799-1.107l.053-1.426a22.339 22.339 0 007.719 1.16c4.188 0 6.279-1.046 6.279-3.166 0-5.467-13.621-.88-13.621-7.606 0-2.852 2.487-4.25 7.47-4.25 2.93 0 5.18.343 6.775.994l-.044 1.326zm7.438 7.192V31.9h-1.581V16.1h9.451c3.137 0 5.233 1.668 5.233 4.587 0 2.918-2.118 4.615-5.233 4.615h-7.87zm0-7.786v4.14c0 .293.054.583.157.854.104.27.256.516.447.723.191.207.419.371.669.483.25.112.518.17.788.17h5.585c2.328 0 3.769-1.074 3.769-3.2 0-2.124-1.256-3.17-3.769-3.17h-7.646zM177.611 31.9h-1.805l-4.258-6.284h-7.381V31.9h-1.569V16.1h9.389c3.138 0 5.413 1.616 5.413 4.753 0 2.69-1.647 4.16-4.134 4.587l4.345 6.46zm-13.453-12.178v4.506h7.592c2.667 0 4.003-1.131 4.003-3.365s-1.318-3.37-4.003-3.37h-5.531a1.99 1.99 0 00-1.458.652 2.327 2.327 0 00-.603 1.577zm34.631-3.622l-7.641 6.146L199 31.9h-1.968l-5.848-7.13a2.01 2.01 0 00-1.321-.736 1.942 1.942 0 00-1.434.418l-3.673 2.909v4.53h-1.569V16.1h1.569v9.402l11.863-9.402h2.17z" fill="#666"/><path d="M97.426 16.162L113.05 0l.51.551-14.948 16.89c-1.497 1.8-2.326 4.137-2.326 6.559 0 2.422.829 4.76 2.326 6.56l5.998 7.225-.505.547-6.679-6.494c-1.664-1.62-3.824-2.517-6.063-2.517-2.24 0-4.4.897-6.064 2.517L69.671 48l-.496-.537L84.113 30.56c1.496-1.802 2.324-4.138 2.324-6.56 0-2.422-.828-4.758-2.324-6.56l-5.997-7.225.505-.547 6.678 6.494c1.665 1.62 3.825 2.517 6.064 2.517s4.399-.897 6.063-2.517z" fill="#666"/></svg>