<svg width="1169" height="73" viewBox="0 0 1169 73" fill="none" xmlns="http://www.w3.org/2000/svg"><g opacity=".7"><path d="M43.595 0h-8.717l22.405 36.5L34.878 73h8.717L66 36.5 43.595 0z" fill="url(#paint0_linear)"/><path d="M26.16 0h-8.726l22.405 36.5L17.434 73h8.727l22.405-36.5L26.161 0z" fill="url(#paint1_linear)"/><path d="M8.717 0H0l22.405 36.5L0 73h8.717l22.405-36.5L8.717 0z" fill="url(#paint2_linear)"/><path d="M148.595 0h-8.717l22.405 36.5L139.878 73h8.717L171 36.5 148.595 0z" fill="url(#paint3_linear)"/><path d="M131.161 0h-8.727l22.405 36.5L122.434 73h8.727l22.405-36.5L131.161 0z" fill="url(#paint4_linear)"/><path d="M113.717 0H105l22.405 36.5L105 73h8.717l22.405-36.5L113.717 0z" fill="url(#paint5_linear)"/><path d="M253.595 0h-8.717l22.405 36.5L244.878 73h8.717L276 36.5 253.595 0z" fill="url(#paint6_linear)"/><path d="M236.161 0h-8.727l22.405 36.5L227.434 73h8.727l22.405-36.5L236.161 0z" fill="url(#paint7_linear)"/><path d="M218.717 0H210l22.405 36.5L210 73h8.717l22.405-36.5L218.717 0z" fill="url(#paint8_linear)"/><path d="M358.595 0h-8.717l22.405 36.5L349.878 73h8.717L381 36.5 358.595 0z" fill="url(#paint9_linear)"/><path d="M341.161 0h-8.727l22.405 36.5L332.434 73h8.727l22.405-36.5L341.161 0z" fill="url(#paint10_linear)"/><path d="M323.717 0H315l22.405 36.5L315 73h8.717l22.405-36.5L323.717 0z" fill="url(#paint11_linear)"/><path d="M463.595 0h-8.717l22.405 36.5L454.878 73h8.717L486 36.5 463.595 0z" fill="url(#paint12_linear)"/><path d="M446.161 0h-8.727l22.405 36.5L437.434 73h8.727l22.405-36.5L446.161 0z" fill="url(#paint13_linear)"/><path d="M428.717 0H420l22.405 36.5L420 73h8.717l22.405-36.5L428.717 0z" fill="url(#paint14_linear)"/><path d="M568.595 0h-8.717l22.405 36.5L559.878 73h8.717L591 36.5 568.595 0z" fill="url(#paint15_linear)"/><path d="M551.161 0h-8.727l22.405 36.5L542.434 73h8.727l22.405-36.5L551.161 0z" fill="url(#paint16_linear)"/><path d="M533.717 0H525l22.405 36.5L525 73h8.717l22.405-36.5L533.717 0z" fill="url(#paint17_linear)"/><path d="M673.595 0h-8.717l22.405 36.5L664.878 73h8.717L696 36.5 673.595 0z" fill="url(#paint18_linear)"/><path d="M656.161 0h-8.727l22.405 36.5L647.434 73h8.727l22.405-36.5L656.161 0z" fill="url(#paint19_linear)"/><path d="M638.717 0H630l22.405 36.5L630 73h8.717l22.405-36.5L638.717 0z" fill="url(#paint20_linear)"/><path d="M778.595 0h-8.717l22.405 36.5L769.878 73h8.717L801 36.5 778.595 0z" fill="url(#paint21_linear)"/><path d="M761.161 0h-8.727l22.405 36.5L752.434 73h8.727l22.405-36.5L761.161 0z" fill="url(#paint22_linear)"/><path d="M743.717 0H735l22.405 36.5L735 73h8.717l22.405-36.5L743.717 0z" fill="url(#paint23_linear)"/><path d="M883.595 0h-8.717l22.405 36.5L874.878 73h8.717L906 36.5 883.595 0z" fill="url(#paint24_linear)"/><path d="M866.161 0h-8.727l22.405 36.5L857.434 73h8.727l22.405-36.5L866.161 0z" fill="url(#paint25_linear)"/><path d="M848.717 0H840l22.405 36.5L840 73h8.717l22.405-36.5L848.717 0z" fill="url(#paint26_linear)"/><path d="M988.595 0h-8.717l22.402 36.5L979.878 73h8.717L1011 36.5 988.595 0z" fill="url(#paint27_linear)"/><path d="M971.161 0h-8.727l22.405 36.5L962.434 73h8.727l22.405-36.5L971.161 0z" fill="url(#paint28_linear)"/><path d="M953.717 0H945l22.405 36.5L945 73h8.717l22.405-36.5L953.717 0z" fill="url(#paint29_linear)"/><path d="M1093.59 0h-8.71l22.4 36.5-22.4 36.5h8.71L1116 36.5 1093.59 0z" fill="url(#paint30_linear)"/><path d="M1076.16 0h-8.73l22.41 36.5-22.41 36.5h8.73l22.41-36.5L1076.16 0z" fill="url(#paint31_linear)"/><path d="M1058.72 0H1050l22.41 36.5L1050 73h8.72l22.4-36.5-22.4-36.5z" fill="url(#paint32_linear)"/><path d="M96.595 0h-8.717l22.405 36.5L87.878 73h8.717L119 36.5 96.595 0z" fill="url(#paint33_linear)"/><path d="M79.16 0h-8.726l22.405 36.5L70.434 73h8.727l22.405-36.5L79.161 0z" fill="url(#paint34_linear)"/><path d="M61.717 0H53l22.405 36.5L53 73h8.717l22.405-36.5L61.717 0z" fill="url(#paint35_linear)"/><path d="M201.595 0h-8.717l22.405 36.5L192.878 73h8.717L224 36.5 201.595 0z" fill="url(#paint36_linear)"/><path d="M184.161 0h-8.727l22.405 36.5L175.434 73h8.727l22.405-36.5L184.161 0z" fill="url(#paint37_linear)"/><path d="M166.717 0H158l22.405 36.5L158 73h8.717l22.405-36.5L166.717 0z" fill="url(#paint38_linear)"/><path d="M306.595 0h-8.717l22.405 36.5L297.878 73h8.717L329 36.5 306.595 0z" fill="url(#paint39_linear)"/><path d="M289.161 0h-8.727l22.405 36.5L280.434 73h8.727l22.405-36.5L289.161 0z" fill="url(#paint40_linear)"/><path d="M271.717 0H263l22.405 36.5L263 73h8.717l22.405-36.5L271.717 0z" fill="url(#paint41_linear)"/><path d="M411.595 0h-8.717l22.405 36.5L402.878 73h8.717L434 36.5 411.595 0z" fill="url(#paint42_linear)"/><path d="M394.161 0h-8.727l22.405 36.5L385.434 73h8.727l22.405-36.5L394.161 0z" fill="url(#paint43_linear)"/><path d="M376.717 0H368l22.405 36.5L368 73h8.717l22.405-36.5L376.717 0z" fill="url(#paint44_linear)"/><path d="M516.595 0h-8.717l22.405 36.5L507.878 73h8.717L539 36.5 516.595 0z" fill="url(#paint45_linear)"/><path d="M499.161 0h-8.727l22.405 36.5L490.434 73h8.727l22.405-36.5L499.161 0z" fill="url(#paint46_linear)"/><path d="M481.717 0H473l22.405 36.5L473 73h8.717l22.405-36.5L481.717 0z" fill="url(#paint47_linear)"/><path d="M621.595 0h-8.717l22.405 36.5L612.878 73h8.717L644 36.5 621.595 0z" fill="url(#paint48_linear)"/><path d="M604.161 0h-8.727l22.405 36.5L595.434 73h8.727l22.405-36.5L604.161 0z" fill="url(#paint49_linear)"/><path d="M586.717 0H578l22.405 36.5L578 73h8.717l22.405-36.5L586.717 0z" fill="url(#paint50_linear)"/><path d="M726.595 0h-8.717l22.405 36.5L717.878 73h8.717L749 36.5 726.595 0z" fill="url(#paint51_linear)"/><path d="M709.161 0h-8.727l22.405 36.5L700.434 73h8.727l22.405-36.5L709.161 0z" fill="url(#paint52_linear)"/><path d="M691.717 0H683l22.405 36.5L683 73h8.717l22.405-36.5L691.717 0z" fill="url(#paint53_linear)"/><path d="M831.595 0h-8.717l22.405 36.5L822.878 73h8.717L854 36.5 831.595 0z" fill="url(#paint54_linear)"/><path d="M814.161 0h-8.727l22.405 36.5L805.434 73h8.727l22.405-36.5L814.161 0z" fill="url(#paint55_linear)"/><path d="M796.717 0H788l22.405 36.5L788 73h8.717l22.405-36.5L796.717 0z" fill="url(#paint56_linear)"/><path d="M936.595 0h-8.717l22.405 36.5L927.878 73h8.717L959 36.5 936.595 0z" fill="url(#paint57_linear)"/><path d="M919.161 0h-8.727l22.405 36.5L910.434 73h8.727l22.405-36.5L919.161 0z" fill="url(#paint58_linear)"/><path d="M901.717 0H893l22.405 36.5L893 73h8.717l22.405-36.5L901.717 0z" fill="url(#paint59_linear)"/><path d="M1041.59 0h-8.71l22.4 36.5-22.4 36.5h8.71L1064 36.5 1041.59 0z" fill="url(#paint60_linear)"/><path d="M1024.16 0h-8.73l22.41 36.5-22.41 36.5h8.73l22.41-36.5L1024.16 0z" fill="url(#paint61_linear)"/><path d="M1006.72 0H998l22.41 36.5L998 73h8.72l22.4-36.5-22.4-36.5z" fill="url(#paint62_linear)"/><path d="M1146.59 0h-8.71l22.4 36.5-22.4 36.5h8.71L1169 36.5 1146.59 0z" fill="url(#paint63_linear)"/><path d="M1129.16 0h-8.73l22.41 36.5-22.41 36.5h8.73l22.41-36.5L1129.16 0z" fill="url(#paint64_linear)"/><path d="M1111.72 0H1103l22.41 36.5L1103 73h8.72l22.4-36.5-22.4-36.5z" fill="url(#paint65_linear)"/></g><defs><linearGradient id="paint0_linear" x1="330.071" y1="73" x2="330.071" y2="0" gradientUnits="userSpaceOnUse"><stop stop-color="#121212"/><stop offset="1" stop-color="#242424"/></linearGradient><linearGradient id="paint1_linear" x1="330.071" y1="73" x2="330.071" y2="0" gradientUnits="userSpaceOnUse"><stop stop-color="#121212"/><stop offset="1" stop-color="#242424"/></linearGradient><linearGradient id="paint2_linear" x1="330.071" y1="73" x2="330.071" y2="0" gradientUnits="userSpaceOnUse"><stop stop-color="#121212"/><stop offset="1" stop-color="#242424"/></linearGradient><linearGradient id="paint3_linear" x1="330.071" y1="73" x2="330.071" y2="0" gradientUnits="userSpaceOnUse"><stop stop-color="#121212"/><stop offset="1" stop-color="#242424"/></linearGradient><linearGradient id="paint4_linear" x1="330.071" y1="73" x2="330.071" y2="0" gradientUnits="userSpaceOnUse"><stop stop-color="#121212"/><stop offset="1" stop-color="#242424"/></linearGradient><linearGradient id="paint5_linear" x1="330.071" y1="73" x2="330.071" y2="0" gradientUnits="userSpaceOnUse"><stop stop-color="#121212"/><stop offset="1" stop-color="#242424"/></linearGradient><linearGradient id="paint6_linear" x1="330.071" y1="73" x2="330.071" y2="0" gradientUnits="userSpaceOnUse"><stop stop-color="#121212"/><stop offset="1" stop-color="#242424"/></linearGradient><linearGradient id="paint7_linear" x1="330.071" y1="73" x2="330.071" y2="0" gradientUnits="userSpaceOnUse"><stop stop-color="#121212"/><stop offset="1" stop-color="#242424"/></linearGradient><linearGradient id="paint8_linear" x1="330.071" y1="73" x2="330.071" y2="0" gradientUnits="userSpaceOnUse"><stop stop-color="#121212"/><stop offset="1" stop-color="#242424"/></linearGradient><linearGradient id="paint9_linear" x1="330.071" y1="73" x2="330.071" y2="0" gradientUnits="userSpaceOnUse"><stop stop-color="#121212"/><stop offset="1" stop-color="#242424"/></linearGradient><linearGradient id="paint10_linear" x1="330.071" y1="73" x2="330.071" y2="0" gradientUnits="userSpaceOnUse"><stop stop-color="#121212"/><stop offset="1" stop-color="#242424"/></linearGradient><linearGradient id="paint11_linear" x1="330.071" y1="73" x2="330.071" y2="0" gradientUnits="userSpaceOnUse"><stop stop-color="#121212"/><stop offset="1" stop-color="#242424"/></linearGradient><linearGradient id="paint12_linear" x1="330.071" y1="73" x2="330.071" y2="0" gradientUnits="userSpaceOnUse"><stop stop-color="#121212"/><stop offset="1" stop-color="#242424"/></linearGradient><linearGradient id="paint13_linear" x1="330.071" y1="73" x2="330.071" y2="0" gradientUnits="userSpaceOnUse"><stop stop-color="#121212"/><stop offset="1" stop-color="#242424"/></linearGradient><linearGradient id="paint14_linear" x1="330.071" y1="73" x2="330.071" y2="0" gradientUnits="userSpaceOnUse"><stop stop-color="#121212"/><stop offset="1" stop-color="#242424"/></linearGradient><linearGradient id="paint15_linear" x1="330.071" y1="73" x2="330.071" y2="0" gradientUnits="userSpaceOnUse"><stop stop-color="#121212"/><stop offset="1" stop-color="#242424"/></linearGradient><linearGradient id="paint16_linear" x1="330.071" y1="73" x2="330.071" y2="0" gradientUnits="userSpaceOnUse"><stop stop-color="#121212"/><stop offset="1" stop-color="#242424"/></linearGradient><linearGradient id="paint17_linear" x1="330.071" y1="73" x2="330.071" y2="0" gradientUnits="userSpaceOnUse"><stop stop-color="#121212"/><stop offset="1" stop-color="#242424"/></linearGradient><linearGradient id="paint18_linear" x1="330.071" y1="73" x2="330.071" y2="0" gradientUnits="userSpaceOnUse"><stop stop-color="#121212"/><stop offset="1" stop-color="#242424"/></linearGradient><linearGradient id="paint19_linear" x1="330.071" y1="73" x2="330.071" y2="0" gradientUnits="userSpaceOnUse"><stop stop-color="#121212"/><stop offset="1" stop-color="#242424"/></linearGradient><linearGradient id="paint20_linear" x1="330.071" y1="73" x2="330.071" y2="0" gradientUnits="userSpaceOnUse"><stop stop-color="#121212"/><stop offset="1" stop-color="#242424"/></linearGradient><linearGradient id="paint21_linear" x1="330.071" y1="73" x2="330.071" y2="0" gradientUnits="userSpaceOnUse"><stop stop-color="#121212"/><stop offset="1" stop-color="#242424"/></linearGradient><linearGradient id="paint22_linear" x1="330.071" y1="73" x2="330.071" y2="0" gradientUnits="userSpaceOnUse"><stop stop-color="#121212"/><stop offset="1" stop-color="#242424"/></linearGradient><linearGradient id="paint23_linear" x1="330.071" y1="73" x2="330.071" y2="0" gradientUnits="userSpaceOnUse"><stop stop-color="#121212"/><stop offset="1" stop-color="#242424"/></linearGradient><linearGradient id="paint24_linear" x1="330.071" y1="73" x2="330.071" y2="0" gradientUnits="userSpaceOnUse"><stop stop-color="#121212"/><stop offset="1" stop-color="#242424"/></linearGradient><linearGradient id="paint25_linear" x1="330.071" y1="73" x2="330.071" y2="0" gradientUnits="userSpaceOnUse"><stop stop-color="#121212"/><stop offset="1" stop-color="#242424"/></linearGradient><linearGradient id="paint26_linear" x1="330.071" y1="73" x2="330.071" y2="0" gradientUnits="userSpaceOnUse"><stop stop-color="#121212"/><stop offset="1" stop-color="#242424"/></linearGradient><linearGradient id="paint27_linear" x1="330.071" y1="73" x2="330.071" y2="0" gradientUnits="userSpaceOnUse"><stop stop-color="#121212"/><stop offset="1" stop-color="#242424"/></linearGradient><linearGradient id="paint28_linear" x1="330.071" y1="73" x2="330.071" y2="0" gradientUnits="userSpaceOnUse"><stop stop-color="#121212"/><stop offset="1" stop-color="#242424"/></linearGradient><linearGradient id="paint29_linear" x1="330.071" y1="73" x2="330.071" y2="0" gradientUnits="userSpaceOnUse"><stop stop-color="#121212"/><stop offset="1" stop-color="#242424"/></linearGradient><linearGradient id="paint30_linear" x1="330.071" y1="73" x2="330.071" y2="0" gradientUnits="userSpaceOnUse"><stop stop-color="#121212"/><stop offset="1" stop-color="#242424"/></linearGradient><linearGradient id="paint31_linear" x1="330.071" y1="73" x2="330.071" y2="0" gradientUnits="userSpaceOnUse"><stop stop-color="#121212"/><stop offset="1" stop-color="#242424"/></linearGradient><linearGradient id="paint32_linear" x1="330.071" y1="73" x2="330.071" y2="0" gradientUnits="userSpaceOnUse"><stop stop-color="#121212"/><stop offset="1" stop-color="#242424"/></linearGradient><linearGradient id="paint33_linear" x1="330.071" y1="73" x2="330.071" y2="0" gradientUnits="userSpaceOnUse"><stop stop-color="#121212"/><stop offset="1" stop-color="#242424"/></linearGradient><linearGradient id="paint34_linear" x1="330.071" y1="73" x2="330.071" y2="0" gradientUnits="userSpaceOnUse"><stop stop-color="#121212"/><stop offset="1" stop-color="#242424"/></linearGradient><linearGradient id="paint35_linear" x1="330.071" y1="73" x2="330.071" y2="0" gradientUnits="userSpaceOnUse"><stop stop-color="#121212"/><stop offset="1" stop-color="#242424"/></linearGradient><linearGradient id="paint36_linear" x1="330.071" y1="73" x2="330.071" y2="0" gradientUnits="userSpaceOnUse"><stop stop-color="#121212"/><stop offset="1" stop-color="#242424"/></linearGradient><linearGradient id="paint37_linear" x1="330.071" y1="73" x2="330.071" y2="0" gradientUnits="userSpaceOnUse"><stop stop-color="#121212"/><stop offset="1" stop-color="#242424"/></linearGradient><linearGradient id="paint38_linear" x1="330.071" y1="73" x2="330.071" y2="0" gradientUnits="userSpaceOnUse"><stop stop-color="#121212"/><stop offset="1" stop-color="#242424"/></linearGradient><linearGradient id="paint39_linear" x1="330.071" y1="73" x2="330.071" y2="0" gradientUnits="userSpaceOnUse"><stop stop-color="#121212"/><stop offset="1" stop-color="#242424"/></linearGradient><linearGradient id="paint40_linear" x1="330.071" y1="73" x2="330.071" y2="0" gradientUnits="userSpaceOnUse"><stop stop-color="#121212"/><stop offset="1" stop-color="#242424"/></linearGradient><linearGradient id="paint41_linear" x1="330.071" y1="73" x2="330.071" y2="0" gradientUnits="userSpaceOnUse"><stop stop-color="#121212"/><stop offset="1" stop-color="#242424"/></linearGradient><linearGradient id="paint42_linear" x1="330.071" y1="73" x2="330.071" y2="0" gradientUnits="userSpaceOnUse"><stop stop-color="#121212"/><stop offset="1" stop-color="#242424"/></linearGradient><linearGradient id="paint43_linear" x1="330.071" y1="73" x2="330.071" y2="0" gradientUnits="userSpaceOnUse"><stop stop-color="#121212"/><stop offset="1" stop-color="#242424"/></linearGradient><linearGradient id="paint44_linear" x1="330.071" y1="73" x2="330.071" y2="0" gradientUnits="userSpaceOnUse"><stop stop-color="#121212"/><stop offset="1" stop-color="#242424"/></linearGradient><linearGradient id="paint45_linear" x1="330.071" y1="73" x2="330.071" y2="0" gradientUnits="userSpaceOnUse"><stop stop-color="#121212"/><stop offset="1" stop-color="#242424"/></linearGradient><linearGradient id="paint46_linear" x1="330.071" y1="73" x2="330.071" y2="0" gradientUnits="userSpaceOnUse"><stop stop-color="#121212"/><stop offset="1" stop-color="#242424"/></linearGradient><linearGradient id="paint47_linear" x1="330.071" y1="73" x2="330.071" y2="0" gradientUnits="userSpaceOnUse"><stop stop-color="#121212"/><stop offset="1" stop-color="#242424"/></linearGradient><linearGradient id="paint48_linear" x1="330.071" y1="73" x2="330.071" y2="0" gradientUnits="userSpaceOnUse"><stop stop-color="#121212"/><stop offset="1" stop-color="#242424"/></linearGradient><linearGradient id="paint49_linear" x1="330.071" y1="73" x2="330.071" y2="0" gradientUnits="userSpaceOnUse"><stop stop-color="#121212"/><stop offset="1" stop-color="#242424"/></linearGradient><linearGradient id="paint50_linear" x1="330.071" y1="73" x2="330.071" y2="0" gradientUnits="userSpaceOnUse"><stop stop-color="#121212"/><stop offset="1" stop-color="#242424"/></linearGradient><linearGradient id="paint51_linear" x1="330.071" y1="73" x2="330.071" y2="0" gradientUnits="userSpaceOnUse"><stop stop-color="#121212"/><stop offset="1" stop-color="#242424"/></linearGradient><linearGradient id="paint52_linear" x1="330.071" y1="73" x2="330.071" y2="0" gradientUnits="userSpaceOnUse"><stop stop-color="#121212"/><stop offset="1" stop-color="#242424"/></linearGradient><linearGradient id="paint53_linear" x1="330.071" y1="73" x2="330.071" y2="0" gradientUnits="userSpaceOnUse"><stop stop-color="#121212"/><stop offset="1" stop-color="#242424"/></linearGradient><linearGradient id="paint54_linear" x1="330.071" y1="73" x2="330.071" y2="0" gradientUnits="userSpaceOnUse"><stop stop-color="#121212"/><stop offset="1" stop-color="#242424"/></linearGradient><linearGradient id="paint55_linear" x1="330.071" y1="73" x2="330.071" y2="0" gradientUnits="userSpaceOnUse"><stop stop-color="#121212"/><stop offset="1" stop-color="#242424"/></linearGradient><linearGradient id="paint56_linear" x1="330.071" y1="73" x2="330.071" y2="0" gradientUnits="userSpaceOnUse"><stop stop-color="#121212"/><stop offset="1" stop-color="#242424"/></linearGradient><linearGradient id="paint57_linear" x1="330.071" y1="73" x2="330.071" y2="0" gradientUnits="userSpaceOnUse"><stop stop-color="#121212"/><stop offset="1" stop-color="#242424"/></linearGradient><linearGradient id="paint58_linear" x1="330.071" y1="73" x2="330.071" y2="0" gradientUnits="userSpaceOnUse"><stop stop-color="#121212"/><stop offset="1" stop-color="#242424"/></linearGradient><linearGradient id="paint59_linear" x1="330.071" y1="73" x2="330.071" y2="0" gradientUnits="userSpaceOnUse"><stop stop-color="#121212"/><stop offset="1" stop-color="#242424"/></linearGradient><linearGradient id="paint60_linear" x1="330.071" y1="73" x2="330.071" y2="0" gradientUnits="userSpaceOnUse"><stop stop-color="#121212"/><stop offset="1" stop-color="#242424"/></linearGradient><linearGradient id="paint61_linear" x1="330.071" y1="73" x2="330.071" y2="0" gradientUnits="userSpaceOnUse"><stop stop-color="#121212"/><stop offset="1" stop-color="#242424"/></linearGradient><linearGradient id="paint62_linear" x1="330.071" y1="73" x2="330.071" y2="0" gradientUnits="userSpaceOnUse"><stop stop-color="#121212"/><stop offset="1" stop-color="#242424"/></linearGradient><linearGradient id="paint63_linear" x1="330.071" y1="73" x2="330.071" y2="0" gradientUnits="userSpaceOnUse"><stop stop-color="#121212"/><stop offset="1" stop-color="#242424"/></linearGradient><linearGradient id="paint64_linear" x1="330.071" y1="73" x2="330.071" y2="0" gradientUnits="userSpaceOnUse"><stop stop-color="#121212"/><stop offset="1" stop-color="#242424"/></linearGradient><linearGradient id="paint65_linear" x1="330.071" y1="73" x2="330.071" y2="0" gradientUnits="userSpaceOnUse"><stop stop-color="#121212"/><stop offset="1" stop-color="#242424"/></linearGradient></defs></svg>