<svg width="29" height="17" viewBox="0 0 29 17" fill="none" xmlns="http://www.w3.org/2000/svg"><mask id="a" maskUnits="userSpaceOnUse" x="0" y="0" width="29" height="17" fill="#000"><path fill="#fff" d="M0 0h29v17H0z"/><path d="M27.75 14.459c0-.103-.108-.103-.108-.206-.43-.822-1.397-1.849-2.686-2.979-.644-.514-.967-.925-1.182-1.13-.322-.411-.322-.72-.214-1.13.107-.309.537-.822 1.289-1.747.43-.514.644-.822.966-1.13 1.612-2.055 2.364-3.39 2.149-4.007l-.107-.103c-.108-.102-.215-.205-.43-.205-.215-.103-.537-.103-.86 0h-4.834l-.107.103c-.108.102-.108.102-.108.205-.43 1.13-.966 2.055-1.503 3.082-.323.514-.645 1.028-.967 1.439-.323.41-.537.719-.752.924-.215.206-.43.309-.537.514-.108.103-.323.206-.323.103-.107 0-.215 0-.215-.103l-.322-.308c-.107-.103-.107-.308-.215-.514V2.13c0-.103-.107-.308-.107-.41l-.322-.31c-.108-.102-.323-.102-.43-.205A10.057 10.057 0 0013.89 1c-1.719 0-2.9.103-3.33.308-.215.103-.43.206-.537.411-.215.206-.215.308-.108.308.537.103.967.309 1.182.617l.107.205c.108.103.108.309.215.617.108.308.108.616.108 1.027v1.644c0 .514-.108.822-.108 1.13 0 .308-.107.514-.214.617-.108.205-.108.308-.215.308 0 0 0 .103-.108.103-.107 0-.215.102-.43.102-.107 0-.322-.102-.43-.205a1.268 1.268 0 01-.536-.514c-.215-.205-.43-.514-.645-.925-.215-.41-.537-.821-.752-1.438l-.215-.41a14.239 14.239 0 01-.537-1.131c-.215-.514-.43-.925-.644-1.438a1.427 1.427 0 00-.323-.411h-.107s-.108-.103-.215-.103-.215-.103-.322-.103H1.859c-.43 0-.644.103-.752.206L1 2.027v.206c0 .103 0 .205.107.41.538 1.234 1.182 2.467 1.827 3.7.644 1.13 1.289 2.157 1.719 2.876.537.72.966 1.439 1.503 2.055.538.616.86 1.027.967 1.233l.43.41.322.309c.215.205.537.514.967.822.43.308.967.616 1.504.925.537.308 1.182.513 1.826.719.752.205 1.397.308 2.041.205h1.612a.997.997 0 00.752-.308l.107-.103c0-.102.108-.102.108-.205v-.411c0-.411 0-.72.107-1.027.108-.309.108-.514.215-.72.107-.205.215-.308.322-.41l.215-.206h.108c.214-.103.537 0 .752.205a3.2 3.2 0 01.859.822c.215.308.537.617.967 1.028.43.41.752.719.967.822l.322.205c.215.103.43.205.752.308.322.103.537.103.752.103l3.652-.103c.323 0 .645-.103.86-.205.215-.103.322-.206.322-.411v-.411c-.215-.206-.215-.308-.215-.411z"/></mask><path d="M27.642 14.253h1v-.245l-.114-.218-.886.463zm-2.686-2.979l.66-.752-.018-.015-.019-.015-.623.782zm-1.182-1.13l-.787.617.045.056.051.05.691-.723zm-.214-1.13l-.945-.33-.013.038-.01.039.968.253zm1.289-1.747l-.767-.642-.01.011.777.631zm.966-1.13l.692.723.051-.05.044-.056-.787-.617zm2.149-4.007l.944-.329-.079-.227-.174-.167-.691.723zm-.107-.103l.69-.722-.69.722zm-.43-.205l-.431.902.204.098h.227v-1zm-.86 0v1h.156l.148-.047-.303-.953zm-4.834 0v-1h-.4l-.29.277.69.723zm-.107.103l-.691-.723.69.723zm-.108.205l.935.356.066-.172V2.13h-1zm-1.503 3.082l.847.532.02-.034.019-.034-.886-.464zM17.759 8.09l.69.723.12-.114.076-.146-.886-.463zm-.323.103h1v-1h-1v1zm-.215-.103h1v-.427l-.308-.296-.692.723zm-.537-.822h-1v.246l.114.217.886-.463zm-.107-5.548h1v-.427l-.309-.296-.691.723zm-.752-.514l.691-.722-.213-.204-.29-.056-.188.982zm-5.801.514l.691.723.119-.114.076-.146-.886-.463zm-.108.308l.188-.982-.093-.018h-.095v1zm1.182.617l.886-.463-.03-.057-.036-.052-.82.572zm.107.205l-.886.464.076.145.12.114.69-.723zm0 5.035l-.69-.723-.12.114-.076.145.886.464zm-.214.308v-1h-1v1h1zm-.967 0l.691-.723-.115-.11-.145-.07-.431.903zm-.537-.514l.886-.463-.076-.146-.12-.114-.69.723zM8.09 5.315l.944-.33-.024-.068-.034-.065-.886.463zm-.215-.41l.887-.464-.887.463zm-1.181-2.57l.922-.385-.016-.04-.02-.038-.886.464zm-.323-.41l.692-.723-.29-.277H6.37v1zm-.107 0l-.691.722.29.278h.4v-1zm-5.157 0l.692.722-.692-.722zM1 2.027l-.691-.722L0 1.6v.427h1zm.107.617l.917-.4-.014-.032-.016-.031-.887.463zm1.827 3.698l-.887.464.009.016.009.016.869-.496zM4.653 9.22l-.859.513.026.044.031.042.802-.599zm2.47 3.288l-.886.463.076.146.12.114.69-.723zm.43.41l-.691.723.691-.722zm.322.309l.691-.723-.69.723zm4.297 2.466l-.303.953.02.006.02.005.263-.964zm2.041.205v-1h-.079l-.078.013.158.987zm2.364-.308l.691.723-.691-.723zm.107-.103l.691.723.31-.295v-.428h-1zm.967-2.98v-1h-.401l-.29.278.691.723zm.108 0v1h.226l.205-.097-.431-.902zm.752.206l-.692.723.071.068.083.053.538-.844zm2.793 2.672l.537-.844-.051-.032-.055-.027-.431.903zm.322.205l-.538.843.052.033.055.026.43-.902zm1.504.41v1h.028l-.028-1zm3.652-.103v-1h-.028l.028 1zm1.182-1.027h1v-.427l-.309-.296-.691.723zm.785-.411a1.121 1.121 0 00-.299-.761c-.03-.034-.06-.062-.063-.065l.024.025a.847.847 0 01.195.349c.026.087.036.17.036.246h-2a1.118 1.118 0 00.362.826l-.024-.025a.853.853 0 01-.195-.348.879.879 0 01-.036-.247h2zm-.221-.669c-.524-1.002-1.62-2.134-2.913-3.268l-1.318 1.504c1.285 1.126 2.123 2.049 2.459 2.69l1.772-.926zm-2.949-3.298c-.61-.487-.776-.748-1.113-1.07l-1.383 1.444c.093.089.572.65 1.25 1.19l1.246-1.564zm-1.018-.965a.554.554 0 01-.066-.1c-.004-.009-.002-.006 0 .004.002.017-.009-.01.032-.164l-1.935-.506a2.373 2.373 0 00-.075.965c.058.392.231.73.47 1.035l1.574-1.234zm-.057-.184c-.006.016.031-.072.254-.366.202-.266.483-.607.867-1.079l-1.552-1.262c-.368.453-.679.83-.907 1.13-.206.272-.438.594-.55.919l1.888.658zm1.112-1.434c.493-.59.621-.792.89-1.05l-1.382-1.445c-.375.36-.676.774-1.042 1.212l1.534 1.283zm.986-1.155c.817-1.041 1.449-1.94 1.851-2.683a5.11 5.11 0 00.458-1.085c.09-.335.145-.762-.003-1.185l-1.888.658c-.04-.115 0-.143-.04.01-.038.138-.123.35-.284.648-.323.594-.873 1.39-1.667 2.403l1.573 1.234zm2.053-5.347l-.107-.102-1.383 1.445.108.103 1.382-1.446zm-.107-.102c-.124-.12-.484-.483-1.121-.483v2a.533.533 0 01-.242-.068.367.367 0 01-.055-.038c-.002 0 0 0 .006.006l.03.028 1.382-1.445zm-.69-.385c-.525-.252-1.131-.198-1.594-.05l.607 1.905a.574.574 0 01.167-.03h.017a.26.26 0 01-.06-.02L27.858.92zm-1.29-.098h-4.083v2h4.082v-2zm-4.083 0H22.163v2h.322v-2zm-.322 0H21.948v2h.216v-2zm-.215 0h-.107v2h.107v-2zm-.107 0h-.108v2h.108v-2zm-.799.277l-.107.103 1.382 1.445.107-.102-1.382-1.446zm-.107.103c-.02.018-.062.059-.1.098-.038.042-.12.132-.19.264-.078.15-.108.292-.12.401-.008.08-.006.159-.006.165h2c0-.045 0-.004-.004.043a.89.89 0 01-.097.318c-.055.106-.117.17-.126.18l.025-.024-1.382-1.445zm-.351.573c-.402 1.057-.895 1.9-1.456 2.974l1.773.927c.513-.982 1.095-1.988 1.552-3.19l-1.87-.711zM19.167 4.68c-.33.526-.623.991-.906 1.353l1.573 1.234c.362-.46.713-1.023 1.028-1.524L19.167 4.68zm-.906 1.353c-.381.485-.51.679-.656.819l1.382 1.445c.284-.271.584-.694.848-1.03L18.26 6.034zm-.656.819c-.073.069-.095.077-.252.206-.121.099-.33.28-.48.567l1.772.926c-.043.082-.091.109-.024.054l.057-.046.084-.067c.063-.05.142-.115.225-.195l-1.382-1.445zm-.538.513a.347.347 0 01.133-.083c.004-.001.175-.074.417-.039a.96.96 0 01.82.948h-2a1.041 1.041 0 00.889 1.03c.286.043.517-.043.588-.07.196-.075.39-.2.536-.34l-1.383-1.446zm.37-.174h-.016c.01 0 .079.005.171.034a.91.91 0 01.63.863h-2a1.09 1.09 0 00.763 1.043c.132.042.249.052.309.056.063.004.122.004.142.004v-2zm.476.174a1146.06 1146.06 0 01-.323-.308l-1.382 1.446c.054.05.107.102.161.154l.161.154 1.383-1.446zm-.323-.308a.7.7 0 01.156.214c.013.03.016.045.004.004l-.009-.03-.012-.04a2.055 2.055 0 00-.159-.403l-1.772.927c-.002-.003-.004-.012.036.119.014.048.044.147.091.251.05.11.135.262.283.404l1.382-1.446zm.094.21V6.754h-2v.514h2zm0-.515V6.137h-2v.616h2zm0-.616V5.52h-2v.618h2zm0-.616V4.39h-2v1.131h2zm0-1.13V3.466h-2v.924h2zm0-.925V2.747h-2v.719h2zm0-.72V2.131h-2v.617h2zm0-.616a1.235 1.235 0 00-.055-.367 3.546 3.546 0 00-.054-.167l-.016-.045-.004-.013a.762.762 0 01.022.181h-2a1.236 1.236 0 00.055.367c.02.069.043.136.054.168l.016.045.004.012a.774.774 0 01-.021-.181h2zM17.268.996a205.535 205.535 0 00-.322-.308l-1.383 1.446.162.154.16.154L17.269.996zm-.322-.308a1.324 1.324 0 00-.39-.255c-.092-.04-.182-.068-.213-.078-.05-.016-.04-.013-.022-.006a.68.68 0 01.195.134l-1.382 1.445c.144.138.295.214.39.256.091.04.182.067.212.077.05.016.04.014.022.006a.682.682 0 01-.195-.133L16.946.688zm-.933-.465A11.045 11.045 0 0013.89 0v2c.66 0 1.234.09 1.746.188l.376-1.965zM13.89 0c-.875 0-1.633.026-2.239.081-.557.051-1.127.136-1.522.325l.862 1.804c-.005.003.053-.023.22-.055.154-.03.36-.058.621-.082A23.676 23.676 0 0113.891 2V0zm-3.76.406c-.144.069-.703.297-.992.85l1.772.926a.408.408 0 01-.066.094c-.02.02-.032.027-.028.025a3.84 3.84 0 01.176-.09L10.13.405zm-.797.59a2.144 2.144 0 00-.235.263 1.29 1.29 0 00-.216.438 1.054 1.054 0 001.034 1.33v-2a.93.93 0 01.68.306.943.943 0 01.22.87c-.039.15-.105.237-.111.246-.015.02-.017.018.01-.007L9.333.996zm.396 2.014c.2.038.347.09.445.14.099.05.115.082.104.066l1.64-1.144c-.438-.63-1.186-.907-1.814-1.027L9.73 3.01zm.483.097l.107.206 1.773-.927-.108-.205-1.772.926zm.302.465a.717.717 0 01-.169-.239 4.066 4.066 0 01.044.174c.021.08.049.178.087.288l1.889-.658c-.037-.104-.044-.155-.085-.31a1.911 1.911 0 00-.094-.28 1.288 1.288 0 00-.29-.42l-1.382 1.445zm-.038.223c.042.12.052.25.052.698h2c0-.374.01-.86-.163-1.356l-1.889.658zm.052.698v1.644h2V4.493h-2zm0 1.644c0 .184-.019.332-.043.494-.02.14-.065.388-.065.636h2c0-.06.01-.12.043-.34.03-.198.065-.46.065-.79h-2zm-.108 1.13c0 .037-.006.041.002.02a.37.37 0 01.092-.126l1.383 1.445c.335-.32.523-.803.523-1.339h-2zm-.1.153a3.02 3.02 0 00-.095.199c-.028.065-.021.048-.013.032.01-.017.078-.153.235-.273a.902.902 0 01.544-.186v2a1.099 1.099 0 00.993-.614c.035-.067.07-.148.075-.16.013-.03.022-.05.033-.071l-1.773-.927zm.67.772l-1-.001v-.016a.932.932 0 01.014-.139.908.908 0 01.88-.742v2a1.091 1.091 0 001.09-.915 1.133 1.133 0 00.016-.151v-.035l-1-.001zm-.107-.897a1.253 1.253 0 00-.492.101l-.04.016c-.013.005.036-.015.102-.015v2c.282 0 .492-.071.613-.117l.056-.022c.013-.005.009-.003-.001 0a.752.752 0 01-.238.037v-2zm-.43.102a.752.752 0 01.194.026l.023.008c-.003-.001-.004-.003-.003-.001a.459.459 0 01.048.04L9.333 8.913c.154.148.333.254.474.321.112.054.36.162.646.162v-2zm.002-.107c.004.001 0 0-.012-.008a.333.333 0 01-.067-.064c-.007-.01-.007-.011-.003-.003L8.6 8.14c.21.403.587.76.991.953l.863-1.804zm-.277-.335c-.105-.1-.26-.303-.45-.665l-1.772.927c.24.46.515.873.84 1.184l1.382-1.446zm-.45-.665c-.117-.225-.302-.518-.397-.681a3.53 3.53 0 01-.297-.623l-1.888.658c.136.392.304.71.455.97.174.299.258.417.355.603l1.772-.927zm-.752-1.438l-.214-.411-1.773.926.215.411 1.772-.926zm-.215-.411c-.105-.201-.303-.58-.5-1.053l-1.845.772c.232.555.463.998.573 1.207l1.772-.926zm-.5-1.053c-.116-.277-.232-.525-.338-.755a18.746 18.746 0 01-.307-.683l-1.845.771c.116.278.231.526.338.755.108.233.208.448.307.684l1.845-.772zM7.58 1.872c-.185-.354-.39-.548-.517-.67L5.68 2.647c.057.055.072.07.085.086.009.01.022.027.042.066l1.773-.927zM6.37.925h-.107v2h.107v-2zm-.107 1l.69-.723V1.2l-.002-.002-.003-.003a1.441 1.441 0 00-.215-.166A1.284 1.284 0 006.05.822v2a.78.78 0 01-.278-.05.615.615 0 01-.197-.123v-.001l.69-.723zM6.049.822c.13 0 .223.03.257.043.03.01.05.02.013.003C6.302.86 6.23.824 6.145.794a1.237 1.237 0 00-.418-.075v2a.765.765 0 01-.257-.042c-.03-.011-.05-.022-.014-.004.018.008.092.044.175.074.087.032.235.075.418.075v-2zM5.727.719H1.859v2h3.868v-2zm-3.868 0C1.286.72.78.855.416 1.202L1.8 2.647a.478.478 0 01-.091.07c-.025.014-.04.019-.042.02 0 0 .013-.005.045-.01.032-.004.08-.008.148-.008v-2zm-1.443.483l-.107.103L1.69 2.75l.108-.103L.416 1.202zM1 2.027H0v.206h2V2.028H1zm-1 .206c0 .053-.002.196.035.372.036.174.1.338.186.502l1.773-.926-.013-.026A.394.394 0 012 2.25v-.017H0zm.19.81C.745 4.314 1.407 5.58 2.048 6.806l1.773-.927C3.172 4.64 2.545 3.44 2.024 2.244l-1.833.8zm1.875 3.795c.65 1.14 1.315 2.202 1.73 2.894L5.51 8.706c-.446-.746-1.07-1.739-1.709-2.859l-1.737.99zm1.786 2.98c.256.342.479.674.733 1.039.246.353.513.723.819 1.074l1.507-1.314a10.547 10.547 0 01-.685-.904c-.23-.329-.49-.715-.771-1.092L3.85 9.818zm1.552 2.113c.262.302.465.544.611.73a6 6 0 01.168.225c.042.06.056.086.055.084l1.772-.927c-.1-.19-.257-.406-.421-.616a21.218 21.218 0 00-.678-.81l-1.507 1.314zm1.03 1.299l.075.072.034.033.017.016.008.007.008.008.015.015.015.014.002.002.002.002h.001v.002l.003.001v.001l.002.001.001.002.002.002.002.001.004.004.003.003.007.007.002.002.002.001.001.002c.036.034-.034-.033.002.001l.007.007.013.013c.01.01.004.003.014.012l.003.003.003.003.006.007.175.166 1.382-1.445-.174-.167-.256-.244-1.382 1.445zm.429.41l.322.309 1.382-1.446-.322-.308-1.382 1.445zm.322.309c.218.208.584.559 1.075.912l1.166-1.626a7.692 7.692 0 01-.859-.732L7.184 13.95zm1.075.912c.48.343 1.065.678 1.59.979l.995-1.735c-.55-.315-1.039-.597-1.419-.87l-1.166 1.626zm1.59.979c.646.371 1.4.607 2.02.805l.607-1.906c-.669-.213-1.205-.389-1.632-.634l-.996 1.735zm2.06.816c.8.219 1.607.365 2.462.229l-.315-1.975c-.435.069-.915.01-1.62-.183l-.527 1.93zm2.304.241h1.612v-2h-1.611v2zm1.612 0c.608 0 1.064-.223 1.443-.585l-1.382-1.446a.372.372 0 01-.043.037c-.004.003-.001 0 .007-.003a.09.09 0 01.01-.004l.005-.001c-.001 0-.013.002-.04.002v2zm1.443-.585l.107-.103-1.382-1.445-.107.103 1.382 1.445zm.416-.826a.883.883 0 01-.23.595l-.025.025c.003-.003.033-.03.064-.064a1.154 1.154 0 00.254-.446 1.13 1.13 0 00.045-.315h-2a.879.879 0 01.23-.595l.025-.025c-.003.003-.033.03-.064.064a1.147 1.147 0 00-.254.446 1.118 1.118 0 00-.045.315h2zm.108-.205V14.87h-2v.41h2zm0-.411c0-.448.01-.579.051-.698l-1.888-.659c-.173.497-.163.982-.163 1.357h2zm.051-.698c.076-.217.115-.405.138-.501.025-.108.029-.103.02-.084l-1.773-.927a2.273 2.273 0 00-.196.558c-.03.135-.045.203-.077.295l1.888.659zm.157-.585a.342.342 0 01.042-.066c.013-.016.029-.032.085-.086l-1.382-1.445c-.128.122-.332.316-.517.67l1.772.927zm.127-.152l.148-.141.049-.047.013-.013.004-.003v-.001h.001l-.69-.723-.692-.723-.001.001-.004.004-.013.013-.05.046-.147.142 1.382 1.445zm-.476.072h.108v-2h-.108v2zm.539-.098a.566.566 0 01-.228.057.344.344 0 01-.103-.01c-.026-.008-.033-.015-.04-.021l1.383-1.445a1.925 1.925 0 00-.792-.457 1.53 1.53 0 00-1.083.072l.863 1.804zm-.217.146c.213.136.439.353.577.551l1.64-1.144a4.2 4.2 0 00-1.142-1.093l-1.075 1.687zm.577.551c.284.409.693.793 1.096 1.178l1.382-1.445c-.456-.437-.693-.669-.838-.877l-1.64 1.144zm1.096 1.178c.21.2.415.397.595.556.164.143.388.33.631.446l.863-1.805c.028.014-.016-.005-.175-.145a18.265 18.265 0 01-.532-.497l-1.382 1.445zm1.12.943l.322.205 1.075-1.686-.322-.206-1.075 1.687zm.429.264c.22.106.488.234.88.359l.607-1.906a4.39 4.39 0 01-.625-.257l-.862 1.804zm.88.359c.472.15.813.15 1.055.15v-2c-.111 0-.17 0-.23-.007a1.074 1.074 0 01-.218-.049l-.608 1.906zm1.083.15l3.652-.103-.056-2-3.652.103.056 2zm3.624-.103a3.09 3.09 0 001.291-.303l-.863-1.804a1.216 1.216 0 01-.21.075.891.891 0 01-.218.032v2zm1.291-.303c.145-.07.384-.196.578-.428.226-.27.313-.585.313-.885h-2a.673.673 0 01.152-.397c.087-.104.164-.128.094-.094l.863 1.804zm.891-1.313V14.869h-2v.411h2zm-.309-1.134c-.055-.053-.003-.019.044.093a.66.66 0 01.046.175c.005.043.004.077.004.044h-2c0 .062-.006.29.105.553.1.24.26.428.419.58l1.382-1.445z" fill="#fff" mask="url(#a)"/></svg>