<svg width="20" height="20" viewBox="0 0 20 20" fill="none" xmlns="http://www.w3.org/2000/svg"><path d="M1.876 14.992l.055-.2-.104-.18A9.54 9.54 0 01.57 9.931C.57 4.722 4.804.5 10.035.5c2.515 0 4.897.989 6.685 2.77 1.782 1.776 2.712 4.148 2.78 6.598-.004 5.205-4.237 9.424-9.465 9.424a9.689 9.689 0 01-4.507-1.124l-.172-.09-.187.05-4.46 1.17 1.167-4.306zm3.722-4.405c.237.359 1.88 2.827 4.438 3.896.412.204.818.348 1.119.455.117.042.218.078.298.11l.03.012.034.008c.626.156 1.25.158 1.73.079.344-.05.778-.248 1.139-.484.352-.231.763-.582.925-1.015.121-.322.184-.628.205-.891.02-.252.005-.5-.06-.693l-.037-.113-.084-.083a1.226 1.226 0 00-.276-.196 9.066 9.066 0 00-.318-.164c-.159-.098-.53-.29-.86-.454a26.172 26.172 0 00-.526-.255 4.293 4.293 0 00-.393-.168 1.216 1.216 0 00-.49-.079.763.763 0 00-.388.148.902.902 0 00-.266.326 3.214 3.214 0 01-.323.445 7.42 7.42 0 01-.328.375l-.003-.002a6.334 6.334 0 00-.178-.083 6.808 6.808 0 01-1.736-1.095 6.65 6.65 0 01-1.229-1.495c.04-.04.076-.084.1-.115l.06-.076.027-.035c.06-.078.114-.143.159-.188.197-.197.297-.397.367-.536l.006-.01a.94.94 0 000-.866l-.037-.072-.01-.01a25.877 25.877 0 01-.268-.629c-.05-.119-.1-.243-.15-.366-.11-.27-.216-.532-.29-.702-.127-.296-.3-.531-.557-.648-.226-.103-.5-.07-.46-.07h0-.001 0-.002 0-.003 0-.002 0-.003 0-.002 0-.003 0-.002 0-.004 0-.002 0-.004 0-.002 0-.005 0-.002 0-.002 0-.004 0-.002 0-.002 0-.004 0-.002 0-.002 0-.006 0-.002 0-.002 0-.008 0-.002 0-.002 0-.002 0H6.88h0-.002 0-.002 0-.002 0-.002 0H6.858h0-.002 0-.002 0-.002 0-.002 0-.002 0-.002 0-.002 0-.002 0H6.765h0-.002 0-.002 0-.002 0-.002 0-.002 0-.002 0-.002 0-.002 0-.002 0-.002 0-.002 0-.002 0H6.711h0-.002 0-.002 0-.002 0-.002 0-.002 0H6.7h0-.002 0-.002 0-.002 0-.002 0H6.603h0-.002 0H6.6h0-.002 0-.002 0-.002 0-.002 0-.002 0H6.576h0-.002 0-.002 0-.002 0-.002 0H6.56h0-.002 0-.002 0-.002 0-.007 0-.002 0-.002 0-.006 0-.002 0-.002 0-.005 0-.002 0-.002 0-.004 0-.002 0-.002 0-.003 0-.002 0-.002 0-.003 0-.002 0H6.5h0-.002 0-.003 0-.002 0-.003 0-.002 0-.003 0-.002 0H6.462c-.215-.001-.718-.002-1.079.476l-.054.067a4.266 4.266 0 00-.48.669c-.221.399-.402.933-.402 1.648 0 .738.264 1.428.527 1.933.232.447.489.795.623.947z" stroke="#fff"/></svg>